<mxfile host="app.diagrams.net" modified="2024-05-20T06:56:51.612Z" agent="Mozilla/5.0 (Windows NT 10.0; Win64; x64) AppleWebKit/537.36 (KHTML, like Gecko) Chrome/94.0.4606.71 Safari/537.36 Core/1.94.244.400 QQBrowser/12.5.5645.400" etag="96IgISprZ5JRWsesqxwT" version="24.4.4" type="github">
  <diagram name="第 1 页" id="W5Wc3xfpr3VdIwrCJjXk">
    <mxGraphModel dx="1434" dy="779" grid="1" gridSize="10" guides="1" tooltips="1" connect="1" arrows="1" fold="1" page="1" pageScale="1" pageWidth="827" pageHeight="1169" math="0" shadow="0">
      <root>
        <mxCell id="0" />
        <mxCell id="1" parent="0" />
        <mxCell id="zvQz8MGQaPYygYlWFjFh-3" value="" style="rounded=0;whiteSpace=wrap;html=1;" vertex="1" parent="1">
          <mxGeometry x="70" y="200" width="610" height="240" as="geometry" />
        </mxCell>
        <mxCell id="zvQz8MGQaPYygYlWFjFh-1" value="" style="dashed=0;outlineConnect=0;html=1;align=center;labelPosition=center;verticalLabelPosition=bottom;verticalAlign=top;shape=mxgraph.weblogos.chrome" vertex="1" parent="1">
          <mxGeometry x="330" y="70" width="50" height="50" as="geometry" />
        </mxCell>
        <mxCell id="zvQz8MGQaPYygYlWFjFh-2" value="" style="image;aspect=fixed;perimeter=ellipsePerimeter;html=1;align=center;shadow=0;dashed=0;spacingTop=3;image=img/lib/active_directory/windows_server.svg;" vertex="1" parent="1">
          <mxGeometry x="90" y="210" width="41" height="50" as="geometry" />
        </mxCell>
        <mxCell id="zvQz8MGQaPYygYlWFjFh-4" value="业务服务器" style="text;html=1;align=center;verticalAlign=middle;whiteSpace=wrap;rounded=0;" vertex="1" parent="1">
          <mxGeometry x="70" y="170" width="70" height="30" as="geometry" />
        </mxCell>
      </root>
    </mxGraphModel>
  </diagram>
</mxfile>
